<svg width="1383pt" height="1070pt" viewBox="0.00 0.00 1382.54 1069.60" xmlns="http://www.w3.org/2000/svg" xmlns:xlink="http://www.w3.org/1999/xlink">
<g id="graph0" class="graph" transform="scale(1 1) rotate(0) translate(4 1065.6)">
<title>ER</title>
<polygon fill="white" stroke="none" points="-4,4 -4,-1065.6 1378.54,-1065.6 1378.54,4 -4,4"/>
<!-- ADMIN -->
<g id="node1" class="node">
<title>ADMIN</title>
<polygon fill="lightgrey" stroke="black" points="974.3,-961.1 974.3,-1061.1 1064.58,-1061.1 1064.58,-961.1 974.3,-961.1"/>
<text text-anchor="middle" x="1019.44" y="-1044.5" font-family="Times,serif" font-size="14.00">Admin</text>
<polyline fill="none" stroke="black" points="974.3,-1036.3 1064.58,-1036.3"/>
<text text-anchor="middle" x="1019.44" y="-1019.7" font-family="Times,serif" font-size="14.00">PK admin_id</text>
<text text-anchor="middle" x="1019.44" y="-1002.9" font-family="Times,serif" font-size="14.00">full_name</text>
<text text-anchor="middle" x="1019.44" y="-986.1" font-family="Times,serif" font-size="14.00">email</text>
<text text-anchor="middle" x="1019.44" y="-969.3" font-family="Times,serif" font-size="14.00">password</text>
</g>
<!-- CREATES -->
<g id="node11" class="node">
<title>CREATES</title>
<polygon fill="white" stroke="black" points="637.44,-888.6 583.93,-870.6 637.44,-852.6 690.95,-870.6 637.44,-888.6"/>
<text text-anchor="middle" x="637.44" y="-866.4" font-family="Times,serif" font-size="14.00">creates</text>
</g>
<!-- ADMIN&#45;&gt;CREATES -->
<g id="edge1" class="edge">
<title>ADMIN-&gt;CREATES</title>
<path fill="none" stroke="black" d="M992.35,-960.63C992.35,-922.47 992.35,-876.6 992.35,-876.6 992.35,-876.6 685.93,-876.6 685.93,-876.6"/>
<polygon fill="black" stroke="black" points="685.93,-873.1 675.93,-876.6 685.93,-880.1 685.93,-873.1"/>
</g>
<!-- LOGS -->
<g id="node12" class="node">
<title>LOGS</title>
<polygon fill="white" stroke="black" points="1240.44,-888.6 1202.06,-870.6 1240.44,-852.6 1278.81,-870.6 1240.44,-888.6"/>
<text text-anchor="middle" x="1240.44" y="-866.4" font-family="Times,serif" font-size="14.00">logs</text>
</g>
<!-- ADMIN&#45;&gt;LOGS -->
<g id="edge3" class="edge">
<title>ADMIN-&gt;LOGS</title>
<path fill="none" stroke="black" d="M1046.52,-960.68C1046.52,-918.31 1046.52,-864.6 1046.52,-864.6 1046.52,-864.6 1202.37,-864.6 1202.37,-864.6"/>
<polygon fill="black" stroke="black" points="1202.37,-868.1 1212.37,-864.6 1202.37,-861.1 1202.37,-868.1"/>
</g>
<!-- SENDS -->
<g id="node13" class="node">
<title>SENDS</title>
<polygon fill="white" stroke="black" points="1019.44,-506.8 973.48,-488.8 1019.44,-470.8 1065.39,-488.8 1019.44,-506.8"/>
<text text-anchor="middle" x="1019.44" y="-484.6" font-family="Times,serif" font-size="14.00">sends</text>
</g>
<!-- ADMIN&#45;&gt;SENDS -->
<g id="edge5" class="edge">
<title>ADMIN-&gt;SENDS</title>
<path fill="none" stroke="black" d="M1028.47,-961.02C1028.47,-961.02 1028.47,-515.24 1028.47,-515.24"/>
<polygon fill="black" stroke="black" points="1031.97,-515.24 1028.47,-505.24 1024.97,-515.24 1031.97,-515.24"/>
</g>
<!-- VOTER -->
<g id="node2" class="node">
<title>VOTER</title>
<polygon fill="lightgrey" stroke="black" points="1128.4,-579.3 1128.4,-780.1 1238.48,-780.1 1238.48,-579.3 1128.4,-579.3"/>
<text text-anchor="middle" x="1183.44" y="-763.5" font-family="Times,serif" font-size="14.00">Voter</text>
<polyline fill="none" stroke="black" points="1128.4,-755.3 1238.48,-755.3"/>
<text text-anchor="middle" x="1183.44" y="-738.7" font-family="Times,serif" font-size="14.00">PK voter_id</text>
<text text-anchor="middle" x="1183.44" y="-721.9" font-family="Times,serif" font-size="14.00">full_name</text>
<text text-anchor="middle" x="1183.44" y="-705.1" font-family="Times,serif" font-size="14.00">dob</text>
<text text-anchor="middle" x="1183.44" y="-688.3" font-family="Times,serif" font-size="14.00">address</text>
<text text-anchor="middle" x="1183.44" y="-671.5" font-family="Times,serif" font-size="14.00">email</text>
<text text-anchor="middle" x="1183.44" y="-654.7" font-family="Times,serif" font-size="14.00">password</text>
<text text-anchor="middle" x="1183.44" y="-637.9" font-family="Times,serif" font-size="14.00">phone</text>
<text text-anchor="middle" x="1183.44" y="-621.1" font-family="Times,serif" font-size="14.00">is_verified</text>
<text text-anchor="middle" x="1183.44" y="-604.3" font-family="Times,serif" font-size="14.00">registration_date</text>
<text text-anchor="middle" x="1183.44" y="-587.5" font-family="Times,serif" font-size="14.00">role</text>
</g>
<!-- CASTS -->
<g id="node14" class="node">
<title>CASTS</title>
<polygon fill="white" stroke="black" points="1242.44,-192.2 1200.28,-174.2 1242.44,-156.2 1284.59,-174.2 1242.44,-192.2"/>
<text text-anchor="middle" x="1242.44" y="-170" font-family="Times,serif" font-size="14.00">casts</text>
</g>
<!-- VOTER&#45;&gt;CASTS -->
<g id="edge7" class="edge">
<title>VOTER-&gt;CASTS</title>
<path fill="none" stroke="black" d="M1238.78,-599.8C1251.46,-599.8 1261.29,-599.8 1261.29,-599.8 1261.29,-599.8 1261.29,-195.81 1261.29,-195.81"/>
<polygon fill="black" stroke="black" points="1264.8,-195.81 1261.29,-185.81 1257.8,-195.81 1264.8,-195.81"/>
</g>
<!-- RECEIVES -->
<g id="node15" class="node">
<title>RECEIVES</title>
<polygon fill="white" stroke="black" points="1183.44,-506.8 1123.1,-488.8 1183.44,-470.8 1243.78,-488.8 1183.44,-506.8"/>
<text text-anchor="middle" x="1183.44" y="-484.6" font-family="Times,serif" font-size="14.00">receives</text>
</g>
<!-- VOTER&#45;&gt;RECEIVES -->
<g id="edge9" class="edge">
<title>VOTER-&gt;RECEIVES</title>
<path fill="none" stroke="black" d="M1183.44,-578.94C1183.44,-578.94 1183.44,-518.69 1183.44,-518.69"/>
<polygon fill="black" stroke="black" points="1186.94,-518.69 1183.44,-508.69 1179.94,-518.69 1186.94,-518.69"/>
</g>
<!-- CANDIDATE -->
<g id="node3" class="node">
<title>CANDIDATE</title>
<polygon fill="lightgrey" stroke="black" points="764.98,-612.9 764.98,-746.5 873.9,-746.5 873.9,-612.9 764.98,-612.9"/>
<text text-anchor="middle" x="819.44" y="-729.9" font-family="Times,serif" font-size="14.00">Candidate</text>
<polyline fill="none" stroke="black" points="764.98,-721.7 873.9,-721.7"/>
<text text-anchor="middle" x="819.44" y="-705.1" font-family="Times,serif" font-size="14.00">PK candidate_id</text>
<text text-anchor="middle" x="819.44" y="-688.3" font-family="Times,serif" font-size="14.00">full_name</text>
<text text-anchor="middle" x="819.44" y="-671.5" font-family="Times,serif" font-size="14.00">symbol</text>
<text text-anchor="middle" x="819.44" y="-654.7" font-family="Times,serif" font-size="14.00">party</text>
<text text-anchor="middle" x="819.44" y="-637.9" font-family="Times,serif" font-size="14.00">manifesto</text>
<text text-anchor="middle" x="819.44" y="-621.1" font-family="Times,serif" font-size="14.00">photo_url</text>
</g>
<!-- CANDIDATE&#45;&gt;SENDS -->
<g id="edge15" class="edge">
<title>CANDIDATE-&gt;SENDS</title>
<path fill="none" stroke="black" d="M874.16,-679.7C930.59,-679.7 1010.41,-679.7 1010.41,-679.7 1010.41,-679.7 1010.41,-515.29 1010.41,-515.29"/>
<polygon fill="black" stroke="black" points="1013.91,-515.29 1010.41,-505.29 1006.91,-515.29 1013.91,-515.29"/>
</g>
<!-- PARTICIPATES -->
<g id="node16" class="node">
<title>PARTICIPATES</title>
<polygon fill="white" stroke="black" points="819.44,-506.8 723.44,-488.8 819.44,-470.8 915.44,-488.8 819.44,-506.8"/>
<text text-anchor="middle" x="819.44" y="-484.6" font-family="Times,serif" font-size="14.00">participates_in</text>
</g>
<!-- CANDIDATE&#45;&gt;PARTICIPATES -->
<g id="edge11" class="edge">
<title>CANDIDATE-&gt;PARTICIPATES</title>
<path fill="none" stroke="black" d="M819.44,-612.66C819.44,-612.66 819.44,-518.79 819.44,-518.79"/>
<polygon fill="black" stroke="black" points="822.94,-518.79 819.44,-508.79 815.94,-518.79 822.94,-518.79"/>
</g>
<!-- APPEARS -->
<g id="node17" class="node">
<title>APPEARS</title>
<polygon fill="white" stroke="black" points="590.44,-506.8 515.67,-488.8 590.44,-470.8 665.2,-488.8 590.44,-506.8"/>
<text text-anchor="middle" x="590.44" y="-484.6" font-family="Times,serif" font-size="14.00">appears_in</text>
</g>
<!-- CANDIDATE&#45;&gt;APPEARS -->
<g id="edge13" class="edge">
<title>CANDIDATE-&gt;APPEARS</title>
<path fill="none" stroke="black" d="M764.64,-679.7C707,-679.7 624.56,-679.7 624.56,-679.7 624.56,-679.7 624.56,-510.58 624.56,-510.58"/>
<polygon fill="black" stroke="black" points="628.06,-510.58 624.56,-500.58 621.06,-510.58 628.06,-510.58"/>
</g>
<!-- ELECTION -->
<g id="node4" class="node">
<title>ELECTION</title>
<polygon fill="lightgrey" stroke="black" points="254.64,-612.9 254.64,-746.5 354.24,-746.5 354.24,-612.9 254.64,-612.9"/>
<text text-anchor="middle" x="304.44" y="-729.9" font-family="Times,serif" font-size="14.00">Election</text>
<polyline fill="none" stroke="black" points="254.64,-721.7 354.24,-721.7"/>
<text text-anchor="middle" x="304.44" y="-705.1" font-family="Times,serif" font-size="14.00">PK election_id</text>
<text text-anchor="middle" x="304.44" y="-688.3" font-family="Times,serif" font-size="14.00">name</text>
<text text-anchor="middle" x="304.44" y="-671.5" font-family="Times,serif" font-size="14.00">type</text>
<text text-anchor="middle" x="304.44" y="-654.7" font-family="Times,serif" font-size="14.00">date</text>
<text text-anchor="middle" x="304.44" y="-637.9" font-family="Times,serif" font-size="14.00">is_active</text>
<text text-anchor="middle" x="304.44" y="-621.1" font-family="Times,serif" font-size="14.00">description</text>
</g>
<!-- HAS -->
<g id="node18" class="node">
<title>HAS</title>
<polygon fill="white" stroke="black" points="55.44,-506.8 21.63,-488.8 55.44,-470.8 89.25,-488.8 55.44,-506.8"/>
<text text-anchor="middle" x="55.44" y="-484.6" font-family="Times,serif" font-size="14.00">has</text>
</g>
<!-- ELECTION&#45;&gt;HAS -->
<g id="edge17" class="edge">
<title>ELECTION-&gt;HAS</title>
<path fill="none" stroke="black" d="M254.35,-679.7C181.64,-679.7 55.44,-679.7 55.44,-679.7 55.44,-679.7 55.44,-518.62 55.44,-518.62"/>
<polygon fill="black" stroke="black" points="58.94,-518.62 55.44,-508.62 51.94,-518.62 58.94,-518.62"/>
</g>
<!-- CONTAINS -->
<g id="node19" class="node">
<title>CONTAINS</title>
<polygon fill="white" stroke="black" points="396.44,-506.8 335.32,-488.8 396.44,-470.8 457.56,-488.8 396.44,-506.8"/>
<text text-anchor="middle" x="396.44" y="-484.6" font-family="Times,serif" font-size="14.00">contains</text>
</g>
<!-- ELECTION&#45;&gt;CONTAINS -->
<g id="edge19" class="edge">
<title>ELECTION-&gt;CONTAINS</title>
<path fill="none" stroke="black" d="M344.78,-612.66C344.78,-612.66 344.78,-503.38 344.78,-503.38"/>
<polygon fill="black" stroke="black" points="348.28,-503.38 344.78,-493.38 341.28,-503.38 348.28,-503.38"/>
</g>
<!-- PRODUCES -->
<g id="node20" class="node">
<title>PRODUCES</title>
<polygon fill="white" stroke="black" points="212.44,-506.8 147.53,-488.8 212.44,-470.8 277.35,-488.8 212.44,-506.8"/>
<text text-anchor="middle" x="212.44" y="-484.6" font-family="Times,serif" font-size="14.00">produces</text>
</g>
<!-- ELECTION&#45;&gt;PRODUCES -->
<g id="edge21" class="edge">
<title>ELECTION-&gt;PRODUCES</title>
<path fill="none" stroke="black" d="M265.99,-612.66C265.99,-612.66 265.99,-503.76 265.99,-503.76"/>
<polygon fill="black" stroke="black" points="269.49,-503.76 265.99,-493.76 262.49,-503.76 269.49,-503.76"/>
</g>
<!-- SCHEDULE -->
<g id="node5" class="node">
<title>SCHEDULE</title>
<polygon fill="lightgrey" stroke="black" points="0,-264.7 0,-398.3 110.88,-398.3 110.88,-264.7 0,-264.7"/>
<text text-anchor="middle" x="55.44" y="-381.7" font-family="Times,serif" font-size="14.00">Schedule</text>
<polyline fill="none" stroke="black" points="0,-373.5 110.88,-373.5"/>
<text text-anchor="middle" x="55.44" y="-356.9" font-family="Times,serif" font-size="14.00">PK schedule_id</text>
<text text-anchor="middle" x="55.44" y="-340.1" font-family="Times,serif" font-size="14.00">nomination_start</text>
<text text-anchor="middle" x="55.44" y="-323.3" font-family="Times,serif" font-size="14.00">nomination_end</text>
<text text-anchor="middle" x="55.44" y="-306.5" font-family="Times,serif" font-size="14.00">voting_start</text>
<text text-anchor="middle" x="55.44" y="-289.7" font-family="Times,serif" font-size="14.00">voting_end</text>
<text text-anchor="middle" x="55.44" y="-272.9" font-family="Times,serif" font-size="14.00">result_declared</text>
</g>
<!-- CONTEST -->
<g id="node6" class="node">
<title>CONTEST</title>
<polygon fill="lightgrey" stroke="black" points="771.97,-298.3 771.97,-364.7 866.91,-364.7 866.91,-298.3 771.97,-298.3"/>
<text text-anchor="middle" x="819.44" y="-348.1" font-family="Times,serif" font-size="14.00">Contest</text>
<polyline fill="none" stroke="black" points="771.97,-339.9 866.91,-339.9"/>
<text text-anchor="middle" x="819.44" y="-323.3" font-family="Times,serif" font-size="14.00">PK contest_id</text>
<text text-anchor="middle" x="819.44" y="-306.5" font-family="Times,serif" font-size="14.00">position</text>
</g>
<!-- COLLECTS -->
<g id="node21" class="node">
<title>COLLECTS</title>
<polygon fill="white" stroke="black" points="996.44,-192.2 939.12,-174.2 996.44,-156.2 1053.76,-174.2 996.44,-192.2"/>
<text text-anchor="middle" x="996.44" y="-170" font-family="Times,serif" font-size="14.00">collects</text>
</g>
<!-- CONTEST&#45;&gt;COLLECTS -->
<g id="edge23" class="edge">
<title>CONTEST-&gt;COLLECTS</title>
<path fill="none" stroke="black" d="M867.06,-331.5C904.13,-331.5 949.32,-331.5 949.32,-331.5 949.32,-331.5 949.32,-189.29 949.32,-189.29"/>
<polygon fill="black" stroke="black" points="952.82,-189.29 949.32,-179.29 945.82,-189.29 952.82,-189.29"/>
</g>
<!-- VOTE -->
<g id="node7" class="node">
<title>VOTE</title>
<polygon fill="lightgrey" stroke="black" points="1034.74,-0.5 1034.74,-83.7 1114.13,-83.7 1114.13,-0.5 1034.74,-0.5"/>
<text text-anchor="middle" x="1074.44" y="-67.1" font-family="Times,serif" font-size="14.00">Vote</text>
<polyline fill="none" stroke="black" points="1034.74,-58.9 1114.13,-58.9"/>
<text text-anchor="middle" x="1074.44" y="-42.3" font-family="Times,serif" font-size="14.00">PK vote_id</text>
<text text-anchor="middle" x="1074.44" y="-25.5" font-family="Times,serif" font-size="14.00">timestamp</text>
<text text-anchor="middle" x="1074.44" y="-8.7" font-family="Times,serif" font-size="14.00">ip_address</text>
</g>
<!-- RESULT -->
<g id="node8" class="node">
<title>RESULT</title>
<polygon fill="lightgrey" stroke="black" points="358.24,-289.9 358.24,-373.1 444.63,-373.1 444.63,-289.9 358.24,-289.9"/>
<text text-anchor="middle" x="401.44" y="-356.5" font-family="Times,serif" font-size="14.00">Result</text>
<polyline fill="none" stroke="black" points="358.24,-348.3 444.63,-348.3"/>
<text text-anchor="middle" x="401.44" y="-331.7" font-family="Times,serif" font-size="14.00">PK result_id</text>
<text text-anchor="middle" x="401.44" y="-314.9" font-family="Times,serif" font-size="14.00">total_votes</text>
<text text-anchor="middle" x="401.44" y="-298.1" font-family="Times,serif" font-size="14.00">percentage</text>
</g>
<!-- NOTIFICATION -->
<g id="node9" class="node">
<title>NOTIFICATION</title>
<polygon fill="lightgrey" stroke="black" points="959.53,-281.5 959.53,-381.5 1079.35,-381.5 1079.35,-281.5 959.53,-281.5"/>
<text text-anchor="middle" x="1019.44" y="-364.9" font-family="Times,serif" font-size="14.00">Notification</text>
<polyline fill="none" stroke="black" points="959.53,-356.7 1079.35,-356.7"/>
<text text-anchor="middle" x="1019.44" y="-340.1" font-family="Times,serif" font-size="14.00">PK notification_id</text>
<text text-anchor="middle" x="1019.44" y="-323.3" font-family="Times,serif" font-size="14.00">message</text>
<text text-anchor="middle" x="1019.44" y="-306.5" font-family="Times,serif" font-size="14.00">created_at</text>
<text text-anchor="middle" x="1019.44" y="-289.7" font-family="Times,serif" font-size="14.00">is_read</text>
</g>
<!-- AUDIT_LOG -->
<g id="node10" class="node">
<title>AUDIT_LOG</title>
<polygon fill="lightgrey" stroke="black" points="1296.33,-621.3 1296.33,-738.1 1374.54,-738.1 1374.54,-621.3 1296.33,-621.3"/>
<text text-anchor="middle" x="1335.44" y="-721.5" font-family="Times,serif" font-size="14.00">AuditLog</text>
<polyline fill="none" stroke="black" points="1296.33,-713.3 1374.54,-713.3"/>
<text text-anchor="middle" x="1335.44" y="-696.7" font-family="Times,serif" font-size="14.00">PK log_id</text>
<text text-anchor="middle" x="1335.44" y="-679.9" font-family="Times,serif" font-size="14.00">action</text>
<text text-anchor="middle" x="1335.44" y="-663.1" font-family="Times,serif" font-size="14.00">description</text>
<text text-anchor="middle" x="1335.44" y="-646.3" font-family="Times,serif" font-size="14.00">timestamp</text>
<text text-anchor="middle" x="1335.44" y="-629.5" font-family="Times,serif" font-size="14.00">ip_address</text>
</g>
<!-- CREATES&#45;&gt;ELECTION -->
<g id="edge2" class="edge">
<title>CREATES-&gt;ELECTION</title>
<path fill="none" stroke="black" d="M582.45,-870.6C487.87,-870.6 304.44,-870.6 304.44,-870.6 304.44,-870.6 304.44,-758.25 304.44,-758.25"/>
<polygon fill="black" stroke="black" points="307.94,-758.25 304.44,-748.25 300.94,-758.25 307.94,-758.25"/>
</g>
<!-- LOGS&#45;&gt;AUDIT_LOG -->
<g id="edge4" class="edge">
<title>LOGS-&gt;AUDIT_LOG</title>
<path fill="none" stroke="black" d="M1279.9,-870.6C1306,-870.6 1335.44,-870.6 1335.44,-870.6 1335.44,-870.6 1335.44,-750.05 1335.44,-750.05"/>
<polygon fill="black" stroke="black" points="1338.94,-750.05 1335.44,-740.05 1331.94,-750.05 1338.94,-750.05"/>
</g>
<!-- SENDS&#45;&gt;NOTIFICATION -->
<g id="edge6" class="edge">
<title>SENDS-&gt;NOTIFICATION</title>
<path fill="none" stroke="black" d="M1004.12,-476.46C1004.12,-476.46 1004.12,-393.2 1004.12,-393.2"/>
<polygon fill="black" stroke="black" points="1007.62,-393.2 1004.12,-383.2 1000.62,-393.2 1007.62,-393.2"/>
</g>
<!-- SENDS&#45;&gt;NOTIFICATION -->
<g id="edge16" class="edge">
<title>SENDS-&gt;NOTIFICATION</title>
<path fill="none" stroke="black" d="M1034.76,-476.46C1034.76,-476.46 1034.76,-393.2 1034.76,-393.2"/>
<polygon fill="black" stroke="black" points="1038.26,-393.2 1034.76,-383.2 1031.26,-393.2 1038.26,-393.2"/>
</g>
<!-- CASTS&#45;&gt;VOTE -->
<g id="edge8" class="edge">
<title>CASTS-&gt;VOTE</title>
<path fill="none" stroke="black" d="M1199.12,-174.2C1156.17,-174.2 1096.74,-174.2 1096.74,-174.2 1096.74,-174.2 1096.74,-95.41 1096.74,-95.41"/>
<polygon fill="black" stroke="black" points="1100.24,-95.41 1096.74,-85.41 1093.24,-95.41 1100.24,-95.41"/>
</g>
<!-- RECEIVES&#45;&gt;NOTIFICATION -->
<g id="edge10" class="edge">
<title>RECEIVES-&gt;NOTIFICATION</title>
<path fill="none" stroke="black" d="M1121.41,-488.8C1095.97,-488.8 1072.37,-488.8 1072.37,-488.8 1072.37,-488.8 1072.37,-393.22 1072.37,-393.22"/>
<polygon fill="black" stroke="black" points="1075.87,-393.22 1072.37,-383.22 1068.87,-393.22 1075.87,-393.22"/>
</g>
<!-- PARTICIPATES&#45;&gt;CONTEST -->
<g id="edge12" class="edge">
<title>PARTICIPATES-&gt;CONTEST</title>
<path fill="none" stroke="black" d="M819.44,-470.45C819.44,-470.45 819.44,-376.64 819.44,-376.64"/>
<polygon fill="black" stroke="black" points="822.94,-376.64 819.44,-366.64 815.94,-376.64 822.94,-376.64"/>
</g>
<!-- APPEARS&#45;&gt;RESULT -->
<g id="edge14" class="edge">
<title>APPEARS-&gt;RESULT</title>
<path fill="none" stroke="black" d="M590.44,-470.41C590.44,-436.91 590.44,-369.4 590.44,-369.4 590.44,-369.4 456.31,-369.4 456.31,-369.4"/>
<polygon fill="black" stroke="black" points="456.31,-365.9 446.31,-369.4 456.31,-372.9 456.31,-365.9"/>
</g>
<!-- HAS&#45;&gt;SCHEDULE -->
<g id="edge18" class="edge">
<title>HAS-&gt;SCHEDULE</title>
<path fill="none" stroke="black" d="M55.44,-470.45C55.44,-470.45 55.44,-410.01 55.44,-410.01"/>
<polygon fill="black" stroke="black" points="58.94,-410.01 55.44,-400.01 51.94,-410.01 58.94,-410.01"/>
</g>
<!-- CONTAINS&#45;&gt;CONTEST -->
<g id="edge20" class="edge">
<title>CONTAINS-&gt;CONTEST</title>
<path fill="none" stroke="black" d="M451.1,-486.58C451.1,-467.46 451.1,-331.5 451.1,-331.5 451.1,-331.5 760.15,-331.5 760.15,-331.5"/>
<polygon fill="black" stroke="black" points="760.15,-335 770.15,-331.5 760.15,-328 760.15,-335"/>
</g>
<!-- PRODUCES&#45;&gt;RESULT -->
<g id="edge22" class="edge">
<title>PRODUCES-&gt;RESULT</title>
<path fill="none" stroke="black" d="M212.44,-470.45C212.44,-428.95 212.44,-331.5 212.44,-331.5 212.44,-331.5 346.56,-331.5 346.56,-331.5"/>
<polygon fill="black" stroke="black" points="346.56,-335 356.56,-331.5 346.56,-328 346.56,-335"/>
</g>
<!-- COLLECTS&#45;&gt;VOTE -->
<g id="edge24" class="edge">
<title>COLLECTS-&gt;VOTE</title>
<path fill="none" stroke="black" d="M1044.25,-170.93C1044.25,-170.93 1044.25,-95.46 1044.25,-95.46"/>
<polygon fill="black" stroke="black" points="1047.75,-95.46 1044.25,-85.46 1040.75,-95.46 1047.75,-95.46"/>
</g>
</g>
</svg>